<svg xmlns="http://www.w3.org/2000/svg" viewBox="0 0 500 500"><g id="freepik--background-complete--inject-15"><path d="M357,35.43s21.88-9.25,30.12,17.51l0-9.88,2.81,5.64.7-6.88L394,53.53s-2.07-24,18-29.19c0,0-10.13,7.42-4,17.81,0,0-6.68,2.23-6.66,12.11a18.6,18.6,0,0,0-7.85,13.4s-5.49-13.16-16.59-10.93c0,0,2.7-11.89-8.24-13.5C368.6,43.23,366.83,36.43,357,35.43Z" style="fill:#ebebeb"></path><path d="M44.8,260s23.07-5.66,27,22.08l1.56-9.76,1.87,6L77,271.62l1.44,12.09s1.78-24.07,22.41-26c0,0-11.18,5.72-6.81,16.95,0,0-7,1.14-8.5,10.9a18.6,18.6,0,0,0-9.87,12S72.31,283.71,61,284.16c0,0,4.55-11.32-6-14.65C55,269.51,54.34,262.52,44.8,260Z" style="fill:#ebebeb"></path><path d="M121,27.82s18.72-2.27,22.48,6.79l2-3.51.71,3.4,3.26.09s1-4.08,1-3.38a16.25,16.25,0,0,0,1.36,3.41s7.4-8.31,20.87-3.15c0,0-8.79-1.54-10.16,5.75,0,0-6.09-2.65-6.92,3.57A5.5,5.5,0,0,0,151.06,46a32.71,32.71,0,0,0-3.22-3.13c-.3-.15-3.76,3.05-3.76,3.05s.6-5.79-4.66-5.86c0,0,1.36-6.42-7-4.7C132.39,35.36,134.92,29.7,121,27.82Z" style="fill:#ebebeb"></path><path d="M404.82,276.75s15.06-1.83,18.09,5.46l1.65-2.82.57,2.74,2.62.07s.82-3.29.81-2.72a13.48,13.48,0,0,0,1.1,2.74s5.95-6.69,16.8-2.54c0,0-7.08-1.24-8.18,4.63,0,0-4.91-2.13-5.57,2.87a4.44,4.44,0,0,0-3.68,4.2,26.45,26.45,0,0,0-2.59-2.52c-.24-.12-3,2.45-3,2.45s.49-4.66-3.75-4.71c0,0,1.1-5.17-5.66-3.78C414,282.82,416,278.26,404.82,276.75Z" style="fill:#ebebeb"></path><path d="M401,194.33s25.76-3.35,31.05,9.09l2.77-4.86,1,4.68,4.49.08s1.35-5.64,1.35-4.67,1.91,4.68,1.91,4.68,10.09-11.53,28.71-4.59c0,0-12.12-2-13.93,8,0,0-8.42-3.58-9.48,5,0,0-6.07,1-6.24,7.23,0,0-3.68-3.9-4.46-4.27-.42-.2-5.15,4.24-5.15,4.24s.76-8-6.49-8c0,0,1.8-8.88-9.74-6.39C416.84,204.59,420.26,196.76,401,194.33Z" style="fill:#ebebeb"></path><path d="M28,165.93s18.19-3.15,22.31,5.52l1.82-3.53.87,3.29,3.19-.08s.79-4,.81-3.35a16.19,16.19,0,0,0,1.5,3.26s6.82-8.49,20.24-4.11c0,0-8.66-1.08-9.64,6.12,0,0-6.09-2.29-6.58,3.83a5.38,5.38,0,0,0-4.21,5.32,32.53,32.53,0,0,0-3.3-2.9c-.3-.13-3.53,3.17-3.53,3.17s.3-5.69-4.84-5.49c0,0,1-6.35-7.11-4.25C39.55,172.73,41.74,167.07,28,165.93Z" style="fill:#ebebeb"></path><path d="M352.27,445.7l18.44-84S364.45,312.64,410,312.6c50.37-.05,47.31,35.61,44.92,49.13-.89,5.06-15.23,84-15.23,84Z" style="fill:#e0e0e0"></path><path d="M337.47,445.7l18.43-84s7.32-47.31,52.82-49.1,32.16,44,31.37,49.1-15.23,84-15.23,84Z" style="fill:#f5f5f5"></path><path d="M414.47,334.66c-3.22-2.23-7.3-2.75-11.23-2.69a13.92,13.92,0,0,0-7.71,1.59,15.64,15.64,0,0,0-6.45,5.06,7.75,7.75,0,0,0-.72,7.86c1.34,2.43,4.77,3.65,7.08,2.12-1.61,1.34-3.39,3.39-2.43,5.24.73,1.42,2.77,1.69,4.2,1a9.33,9.33,0,0,0,3.3-3.39,7,7,0,0,0-1.16,2.75,2.12,2.12,0,0,0,3.94,1.51,6.75,6.75,0,0,0,1-2.89c-.28,1.38-.3,3.08.86,3.88,1.34.91,3.3-.23,3.81-1.77s0-3.21-.44-4.76c3.79,0,8-1.43,9.6-4.86C419.83,341.62,417.82,337,414.47,334.66Z" style="fill:#e0e0e0"></path><path d="M400.8,337.52a2.33,2.33,0,0,0-1.6-.6,3.11,3.11,0,0,0-2.24.62,4.17,4.17,0,0,0-2.79,3.17,2.8,2.8,0,0,0,0,1c.31,1.35,2,2,3.34,1.74a4.92,4.92,0,0,0,3.66-4A2.25,2.25,0,0,0,400.8,337.52Z" style="fill:#f5f5f5"></path><path d="M405.61,338a2.36,2.36,0,0,1,1.61-.6,3,3,0,0,1,2.24.62,4.14,4.14,0,0,1,2.78,3.17,2.41,2.41,0,0,1,0,1c-.3,1.35-2,2-3.33,1.73a4.89,4.89,0,0,1-3.66-4A2.28,2.28,0,0,1,405.61,338Z" style="fill:#f5f5f5"></path><path d="M404,347.06c-.4-1.34-.8-2.68-1.19-4a.14.14,0,0,0-.07-.1s-.09.05-.05.07l-.18.05a13,13,0,0,0-2.32,4.76.72.72,0,0,0,.05.56c.19.29.64.22.92,0a3.46,3.46,0,0,0,1.06-1.51,2.62,2.62,0,0,0,.43,1.32.9.9,0,0,0,1.24.22C404.24,348.09,404.13,347.52,404,347.06Z" style="fill:#f5f5f5"></path><path d="M418.68,367.09c0,.2-8.79.36-19.64.36s-19.64-.16-19.64-.36,8.79-.36,19.64-.36S418.68,366.89,418.68,367.09Z" style="fill:#e0e0e0"></path><path d="M427.72,377.74c0,.2-14.38.36-32.12.36s-32.13-.16-32.13-.36,14.38-.36,32.13-.36S427.72,377.54,427.72,377.74Z" style="fill:#e0e0e0"></path><path d="M416.46,382.6c0,.2-9.57.36-21.37.36s-21.38-.16-21.38-.36,9.57-.35,21.38-.35S416.46,382.41,416.46,382.6Z" style="fill:#e0e0e0"></path><path d="M376,405.39c0,.19-3.66.35-8.19.35s-8.19-.16-8.19-.35,3.67-.36,8.19-.36S376,405.19,376,405.39Z" style="fill:#e0e0e0"></path><path d="M398.8,404.36c0,.2-3.56.36-7.94.36s-7.93-.16-7.93-.36,3.55-.36,7.93-.36S398.8,404.16,398.8,404.36Z" style="fill:#e0e0e0"></path><path d="M422.09,403.59c0,.2-3,.36-6.65.36s-6.66-.16-6.66-.36,3-.35,6.66-.35S422.09,403.4,422.09,403.59Z" style="fill:#e0e0e0"></path></g><g id="freepik--Floor--inject-15"><path d="M479.28,445.14c0,.15-103.56.26-231.27.26s-231.29-.11-231.29-.26,103.53-.26,231.29-.26S479.28,445,479.28,445.14Z" style="fill:#263238"></path></g><g id="freepik--Plants--inject-15"><path d="M48.24,420.74a4.39,4.39,0,0,1,.71.81c.44.54,1,1.35,1.71,2.38a49.24,49.24,0,0,1,4.55,8.54,50,50,0,0,1,2.8,9.26c.24,1.21.4,2.2.47,2.89a4.21,4.21,0,0,1,.06,1.08c-.08,0-.32-1.5-.89-3.9a61,61,0,0,0-2.93-9.13,59.3,59.3,0,0,0-4.37-8.54C49.06,422,48.17,420.79,48.24,420.74Z" style="fill:#263238"></path><path d="M68.76,413.73a5.43,5.43,0,0,1,0,1.25c-.08.91-.18,2-.29,3.39-.25,2.86-.55,6.81-.75,11.18s-.26,8.33-.28,11.2c0,1.35,0,2.49,0,3.39a6.15,6.15,0,0,1-.07,1.25,5.74,5.74,0,0,1-.14-1.24c0-.8-.1-2-.14-3.4-.07-2.87-.07-6.85.13-11.23s.56-8.34.9-11.19c.17-1.43.33-2.58.46-3.37A6.23,6.23,0,0,1,68.76,413.73Z" style="fill:#263238"></path><path d="M86.2,423.91c.07,0-.54,1.11-1.41,2.89a51.72,51.72,0,0,0-4.72,14.67,32,32,0,0,1-.53,3.18,2.91,2.91,0,0,1,0-.87c0-.56.08-1.37.2-2.36a41.66,41.66,0,0,1,4.75-14.79c.48-.87.9-1.57,1.21-2S86.17,423.89,86.2,423.91Z" style="fill:#263238"></path><path d="M95.4,422.67c.14,0,1.33,5,2.64,11.27s2.27,11.36,2.13,11.39-1.32-5-2.64-11.28S95.26,422.7,95.4,422.67Z" style="fill:#263238"></path><path d="M119.36,410.68a7.31,7.31,0,0,1-.48,1.31c-.35.82-.83,2-1.38,3.52a78.74,78.74,0,0,0-3.4,12,79.82,79.82,0,0,0-1.43,12.37c-.06,1.6-.07,2.89-.07,3.78a7.08,7.08,0,0,1,0,1.4,7.69,7.69,0,0,1-.15-1.39c-.07-.89-.11-2.19-.1-3.8a68.41,68.41,0,0,1,1.29-12.46,67.05,67.05,0,0,1,3.56-12c.61-1.49,1.14-2.68,1.54-3.48A7.61,7.61,0,0,1,119.36,410.68Z" style="fill:#263238"></path><path d="M134.07,431.26a46.37,46.37,0,0,0-5,6.75,45.67,45.67,0,0,0-3.2,7.76,8.54,8.54,0,0,1,.44-2.45,24.89,24.89,0,0,1,2.31-5.57,24.47,24.47,0,0,1,3.58-4.85A8.44,8.44,0,0,1,134.07,431.26Z" style="fill:#263238"></path><path d="M32.35,430.55A8.92,8.92,0,0,1,34,432.31a27.47,27.47,0,0,1,4.93,10.34,8.23,8.23,0,0,1,.34,2.36,61,61,0,0,0-2.73-7.57A64.5,64.5,0,0,0,32.35,430.55Z" style="fill:#263238"></path><path d="M148.89,420.1c.14,0,1.67,5.52,3.43,12.41s3.07,12.5,2.93,12.53-1.68-5.52-3.44-12.41S148.75,420.13,148.89,420.1Z" style="fill:#263238"></path><path d="M172,427.15a74.1,74.1,0,0,1-1.16,8.62,73.54,73.54,0,0,1-1.68,8.53,74.1,74.1,0,0,1,1.16-8.62A69.82,69.82,0,0,1,172,427.15Z" style="fill:#263238"></path><path d="M184,427.88a11.47,11.47,0,0,1,1.07,2.43,48.91,48.91,0,0,1,1.8,6.13,50.91,50.91,0,0,1,1,6.32,10.85,10.85,0,0,1,.08,2.65,18.48,18.48,0,0,1-.44-2.61c-.24-1.61-.62-3.82-1.16-6.24s-1.17-4.58-1.65-6.14A16.05,16.05,0,0,1,184,427.88Z" style="fill:#263238"></path><path d="M203.63,419.31a36.16,36.16,0,0,1-.86,3.68c-.57,2.26-1.27,5.4-1.87,8.9s-1,6.7-1.18,9a35.39,35.39,0,0,1-.4,3.76,4.3,4.3,0,0,1,0-1c0-.65,0-1.6.08-2.76a85.09,85.09,0,0,1,1-9.08,83.34,83.34,0,0,1,2-8.91c.33-1.12.61-2,.83-2.64A4.32,4.32,0,0,1,203.63,419.31Z" style="fill:#263238"></path><path d="M217.49,433.49c.14.06-.93,2.58-1.54,5.88s-.54,6-.7,6a19.87,19.87,0,0,1,2.24-11.91Z" style="fill:#263238"></path><path d="M231.25,419.71a4.73,4.73,0,0,1,.47,1c.28.64.65,1.58,1.08,2.75.87,2.33,2,5.59,3,9.25s1.8,7,2.28,9.47c.24,1.22.42,2.22.52,2.91a5,5,0,0,1,.11,1.08,4.6,4.6,0,0,1-.31-1c-.19-.78-.41-1.74-.68-2.86-.57-2.42-1.39-5.75-2.42-9.4s-2.08-6.92-2.86-9.28c-.36-1.1-.66-2-.92-2.8A4.74,4.74,0,0,1,231.25,419.71Z" style="fill:#263238"></path><path d="M250.51,429a66.4,66.4,0,0,1,0,8.21,65.34,65.34,0,0,1-.5,8.19,64.13,64.13,0,0,1,0-8.21A65.34,65.34,0,0,1,250.51,429Z" style="fill:#263238"></path><path d="M264.36,446.5a53.33,53.33,0,0,1,2.39-7.16,55.48,55.48,0,0,1,2.87-7,53.33,53.33,0,0,1-2.39,7.16A55.48,55.48,0,0,1,264.36,446.5Z" style="fill:#263238"></path><path d="M281.3,422.25c.13-.06,2.43,4.84,5.13,10.95s4.77,11.09,4.64,11.15-2.42-4.84-5.12-10.94S281.17,422.31,281.3,422.25Z" style="fill:#263238"></path><path d="M304.93,430.51a50.28,50.28,0,0,1,.38,7.26,49.08,49.08,0,0,1-.14,7.26,52.06,52.06,0,0,1-.38-7.26A50.79,50.79,0,0,1,304.93,430.51Z" style="fill:#263238"></path><path d="M393.9,418.51c.08.06-.9,1.28-2.19,3.43a36.88,36.88,0,0,0-2,3.91,35.7,35.7,0,0,0-2.78,10.36,37.58,37.58,0,0,0-.22,4.39c0,2.5.27,4,.18,4.06a4,4,0,0,1-.24-1.07,23.35,23.35,0,0,1-.3-3,31.2,31.2,0,0,1,.1-4.45,36.84,36.84,0,0,1,1-5.37,34.83,34.83,0,0,1,1.85-5.13,31.76,31.76,0,0,1,2.13-3.91,21.25,21.25,0,0,1,1.76-2.43C393.61,418.77,393.87,418.48,393.9,418.51Z" style="fill:#263238"></path><path d="M408,431a19.83,19.83,0,0,0-7.48,13.3,6.4,6.4,0,0,1,.09-2.33,16,16,0,0,1,1.87-5.32,16.27,16.27,0,0,1,3.57-4.36A6.68,6.68,0,0,1,408,431Z" style="fill:#263238"></path><path d="M422.31,427.9s-.18-.12-.44-.41l.15-.06c.26,1.25.75,4.67,1.25,8.69.32,2.57.58,4.89.74,6.58a13.49,13.49,0,0,1,.15,2.75,14.93,14.93,0,0,1-.52-2.7c-.25-1.68-.57-4-.89-6.57-.49-4-.85-7.45-.9-8.73l0-.31.17.24C422.23,427.71,422.33,427.88,422.31,427.9Z" style="fill:#263238"></path><path d="M436.65,420.81c.15,0-.24,5.52-.86,12.31s-1.24,12.28-1.39,12.26.25-5.52.87-12.31S436.51,420.79,436.65,420.81Z" style="fill:#263238"></path><path d="M455.09,428.28a17.45,17.45,0,0,1-1.15,2.53c-.75,1.53-1.74,3.67-2.73,6.08s-1.77,4.64-2.31,6.26a17,17,0,0,1-.95,2.61,13.68,13.68,0,0,1,.59-2.72,60.31,60.31,0,0,1,2.19-6.34,58.36,58.36,0,0,1,2.88-6.06A13.67,13.67,0,0,1,455.09,428.28Z" style="fill:#263238"></path><path d="M358.68,443.22a4.1,4.1,0,0,1-.25-1c-.13-.65-.28-1.6-.44-2.78a82.64,82.64,0,0,1-.69-9.25,84.32,84.32,0,0,1,.35-9.28c.11-1.18.23-2.14.33-2.79a4.35,4.35,0,0,1,.21-1,35.5,35.5,0,0,1-.18,3.84c-.13,2.36-.25,5.63-.19,9.24s.31,6.87.54,9.22A37.31,37.31,0,0,1,358.68,443.22Z" style="fill:#263238"></path><path d="M71.58,477.89a1.21,1.21,0,0,1-.06-.3c0-.24-.08-.53-.13-.9-.1-.8-.22-2-.28-3.49a48.2,48.2,0,0,1,1.21-12.76l.29.21A24.08,24.08,0,0,0,62.49,476l-.11.58L62,476,52.4,462l-.28-.41.48-.16.86,16.29,0,.42L53.1,478A33.92,33.92,0,0,1,38,463.09l.33-.15c1.67,4.4,3,8,4,10.47q.67,1.81,1,2.85c.11.3.19.54.26.74a.77.77,0,0,1,.07.26,1,1,0,0,1-.12-.24l-.31-.73-1.14-2.81-4.11-10.41.33-.15A34.22,34.22,0,0,0,44,470.81a33.76,33.76,0,0,0,9.3,6.71l-.36.24c-.28-5.12-.57-10.6-.88-16.29l0-.93.52.77.28.41,9.62,14-.45.1a24.43,24.43,0,0,1,10.4-15.53l.41-.27-.11.47a50.26,50.26,0,0,0-1.38,12.67c0,1.51.12,2.68.18,3.48,0,.37,0,.66.07.9A1,1,0,0,1,71.58,477.89Z" style="fill:#263238"></path><path d="M274.17,460.57s0,.1-.11.29-.22.5-.36.84c-.31.74-.77,1.83-1.25,3.26a38.76,38.76,0,0,0-2,12.49v.62l-.37-.5-11.22-15.19.45-.21c.93,3.57,1.93,7.36,2.95,11.27q.71,2.71,1.39,5.34l.24.93-.68-.69L247,462.47l.34-.23c2.21,5.42,4,9.87,5.31,13l1.44,3.6c.15.39.27.7.36.95a1.2,1.2,0,0,1,.1.33,1.89,1.89,0,0,1-.16-.31c-.11-.24-.24-.54-.42-.92-.37-.86-.88-2.05-1.54-3.56-1.32-3.13-3.2-7.56-5.48-13l-.42-1,.76.77,16.34,16.48-.43.25c-.46-1.75-.92-3.53-1.4-5.34-1-3.91-2-7.7-2.93-11.27L258.5,461l.78,1.08,11.13,15.24-.36.12a37.63,37.63,0,0,1,2.19-12.56c.52-1.43,1-2.51,1.35-3.24.17-.36.32-.63.41-.81S274.16,460.56,274.17,460.57Z" style="fill:#263238"></path><path d="M436.36,459l-.16.29c-.14.21-.31.47-.51.79-.45.71-1.11,1.74-1.9,3.09A67.49,67.49,0,0,0,428.33,475l-.14.4-.24-.35L418.25,461l.47-.18c.33,2.6.67,5.29,1,8.05s.69,5.47,1,8.08l.08.6-.49-.37a50.13,50.13,0,0,1-11.24-11.83l.38-.18c1.37,5.47,2.51,10,3.32,13.23.37,1.55.67,2.79.89,3.69.08.39.16.71.21,1a1.37,1.37,0,0,1,.06.34,1.68,1.68,0,0,1-.12-.33c-.07-.25-.17-.56-.28-.95-.24-.89-.58-2.12-1-3.66-.85-3.21-2.05-7.73-3.49-13.18l-.32-1.19.7,1a50.85,50.85,0,0,0,11.2,11.67l-.41.24c-.33-2.61-.68-5.31-1-8.08s-.69-5.45-1-8l-.13-1.06.6.88c3.55,5.23,6.84,10.05,9.62,14.13l-.37.05A63.29,63.29,0,0,1,433.59,463c.82-1.34,1.51-2.35,2-3l.56-.76C436.28,459.06,436.35,459,436.36,459Z" style="fill:#263238"></path></g><g id="freepik--Moon--inject-15"><circle cx="248" cy="180.41" r="147.79" style="fill:#e0e0e0"></circle><path d="M248,32.62l2.4,0,2.95.06c1.17,0,2.54,0,4.08.18l5.17.38c1.9.19,4,.48,6.22.75,4.48.62,9.62,1.58,15.33,3,1.43.32,2.87.79,4.37,1.19s3,.8,4.58,1.36l4.75,1.6c1.62.52,3.23,1.24,4.9,1.87a143.56,143.56,0,0,1,20.87,10.26A149.39,149.39,0,0,1,365.73,90.8a147.54,147.54,0,0,1,27.71,62.28,150.28,150.28,0,0,1-.62,58c-.77,3.3-1.48,6.64-2.48,9.93s-2.06,6.57-3.16,9.87A148.45,148.45,0,0,1,367,268.4a163.82,163.82,0,0,1-14.38,16.71,160.16,160.16,0,0,1-17.07,14.63,145.87,145.87,0,0,1-19.43,12.07l-2.57,1.32c-.85.45-1.72.88-2.6,1.26l-5.3,2.4-5.42,2.14-1.36.54-1.38.46-2.78.94-2.78.94-2.82.8c-1.9.51-3.76,1.14-5.69,1.54l-5.77,1.32-5.84,1a148.08,148.08,0,0,1-47.66,0l-5.85-1-5.76-1.32c-1.93-.4-3.8-1-5.7-1.54l-2.82-.8-2.79-.94-2.77-.94-1.39-.47-1.36-.53-5.42-2.14L185,314.4c-.89-.38-1.76-.81-2.61-1.26l-2.57-1.32a145,145,0,0,1-19.44-12.07A146.71,146.71,0,0,1,129,268.4a155.59,155.59,0,0,1-11.55-18.24,157.57,157.57,0,0,1-8.6-19.27c-1.1-3.3-2.29-6.55-3.16-9.88s-1.71-6.62-2.48-9.92a150.32,150.32,0,0,1-.62-58,147.35,147.35,0,0,1,27.72-62.29,149.54,149.54,0,0,1,42.11-37.53A142,142,0,0,1,193.26,43c1.67-.64,3.27-1.35,4.9-1.87l4.75-1.61c1.54-.55,3.09-.9,4.58-1.35s2.93-.87,4.37-1.19a152,152,0,0,1,15.33-3c2.24-.27,4.31-.56,6.21-.75l5.17-.38c1.54-.14,2.91-.16,4.08-.18l2.95-.06,2.4,0-2.4.09-2.95.09c-1.17,0-2.53.06-4.07.21l-5.17.4c-1.89.19-4,.5-6.2.78a152.15,152.15,0,0,0-15.3,3c-1.44.32-2.87.79-4.36,1.2s-3,.8-4.57,1.36l-4.74,1.61c-1.62.53-3.22,1.24-4.89,1.88a142.17,142.17,0,0,0-20.81,10.27,149.48,149.48,0,0,0-42,37.5A147.41,147.41,0,0,0,103,153.16a150.17,150.17,0,0,0,.66,57.83c.77,3.29,1.47,6.62,2.48,9.89.86,3.32,2,6.56,3.15,9.84a147.53,147.53,0,0,0,20.09,37.39,162.88,162.88,0,0,0,14.35,16.65,158.19,158.19,0,0,0,17,14.58,145.34,145.34,0,0,0,19.37,12l2.56,1.31c.85.45,1.71.88,2.6,1.26l5.27,2.38,5.41,2.14,1.35.53,1.38.47,2.77.93,2.77.93,2.82.8c1.88.51,3.75,1.14,5.67,1.53l5.75,1.32,5.82,1a147.47,147.47,0,0,0,47.5,0l5.82-1,5.74-1.32c1.93-.39,3.79-1,5.67-1.52l2.82-.8,2.77-.94,2.76-.93,1.38-.47,1.36-.53,5.4-2.14,5.28-2.38c.88-.38,1.74-.81,2.59-1.26l2.56-1.31a146,146,0,0,0,19.37-12,159,159,0,0,0,17-14.58,161.71,161.71,0,0,0,14.34-16.65,147.7,147.7,0,0,0,20.09-37.38c1.1-3.28,2.29-6.52,3.15-9.83s1.71-6.61,2.48-9.9a150.13,150.13,0,0,0,.66-57.83A147.12,147.12,0,0,0,365.43,91a149.16,149.16,0,0,0-42-37.5,141.27,141.27,0,0,0-20.81-10.28c-1.67-.64-3.27-1.35-4.89-1.88L293,39.75c-1.53-.56-3.09-.91-4.57-1.36s-2.93-.88-4.36-1.2a152.29,152.29,0,0,0-15.31-3c-2.24-.28-4.3-.59-6.2-.78l-5.17-.4c-1.54-.15-2.9-.18-4.07-.21l-2.95-.09Z" style="fill:#263238"></path><g style="opacity:0.1"><path d="M303.83,89l-4.16-3.18a3.68,3.68,0,0,1-1.17-1.22,6.19,6.19,0,0,1-.35-1.83,4.68,4.68,0,0,0-5-3.74c-.89-2.25-1.1-4.73-1.9-7s-2.46-4.54-4.86-5a12.86,12.86,0,0,1-2.79-.4,12.17,12.17,0,0,1-2.43-2c-2.78-2.12-7.64-1-9.41-4a20.44,20.44,0,0,0-1.06-2.21,5.17,5.17,0,0,0-2.6-1.56c-3.49-1.26-7.37-2.52-10.8-1.12a17.7,17.7,0,0,1-3.64,1.53c-1.46.23-3-.32-4.39.27-.81.36-1.47,1.11-2.36,1.15a3.38,3.38,0,0,1-1.73-.61c-3.41-1.93-7.48-3.11-11.27-2.52a6.66,6.66,0,0,1,1.43-.79c.39-.14.8-.19,1.2-.3A4.93,4.93,0,0,0,239,53l-.24-.44c-.52.35-1.23,0-1.72-.36a2.61,2.61,0,0,0-1.63-.85,4.67,4.67,0,0,0-.91.23c-1.3.29-2.53-.82-3.86-.84a4.1,4.1,0,0,0-1.29.25,15.17,15.17,0,0,0-5.18,2.84,2,2,0,0,0-.45.5,1.43,1.43,0,0,0-.1.87,3.2,3.2,0,0,0,1.73,2.4,5.18,5.18,0,0,0,3.26.24l.31-.07a6.21,6.21,0,0,0-1.72,2.09,4.59,4.59,0,0,0,.4,4.91c-1.28.85-2.68-1.15-4.22-1.3-1.12-.1-2.06.82-2.81,1.66l-3.1,3.47-3.66-1a2.91,2.91,0,0,0-1.79-.12,5.61,5.61,0,0,0-1.42,1.16,3.19,3.19,0,0,1-4.42-.49,2.67,2.67,0,0,1-.29-.48A2.24,2.24,0,0,0,207,66.42a1.27,1.27,0,0,0-1.33-.79,3.07,3.07,0,0,1,1.22-1.92c.88-.59,2.14-.83,2.55-1.79l2-1.28a1.83,1.83,0,0,0,.62-.55.63.63,0,0,0-.06-.73c1.21-1.25-.27-4.33,1-5.89.86-1,2.5-.85,3.71-.28s2.34,1.43,3.67,1.53c2,.15,3.65-1.45,5.18-2.76s3.46-2.25,5.44-1.48c-.55-.21,1-2.72,2-2.64.57,0,.62.93,1,1.16,2.73,1.48,6.18-.47,9.16-.81a37.77,37.77,0,0,1,11.33.43c.25-1-.85-1.71-1.78-2.11a52.83,52.83,0,0,0-10.22-3.67,31.12,31.12,0,0,0-18.86,2.28,10.26,10.26,0,0,1-4.55,1.3c-.77-.05-1.53-.3-2.31-.3a5.4,5.4,0,0,0-3.61,1.73,6.08,6.08,0,0,0-3.25,1c-.45.26-.87.55-1.29.85.28.37.85.14,1.25-.07a7.26,7.26,0,0,1,2.3-.77c-.16.17-.31.35-.47.53-.95,1.1-2.31.82-3.75,1a6.79,6.79,0,0,0-1.48.22,3.48,3.48,0,0,0-1.3.89l1.4-1.63a1.69,1.69,0,0,0,.58-1.31,4.55,4.55,0,0,0,3.62-2,1.36,1.36,0,0,1,.48-.53c.4-.2.92.09,1.35-.08s.51-.54.71-.87a5.39,5.39,0,0,1,2.33-1.81L220.07,41l-1.72-.25a6.89,6.89,0,0,0-1.24.15H217a34.49,34.49,0,0,0-13.84,3.78,11.38,11.38,0,0,1-1.12.52,10.24,10.24,0,0,1-1.12.3A34.52,34.52,0,0,0,194,48.28l-12.49,6.06c-.45.22-1,.6-.85,1.08l2.59.27A14.17,14.17,0,0,0,178,58.23a4.06,4.06,0,0,1-1.6.93c-.35.07-.72,0-1.07.11A3.28,3.28,0,0,0,174,60l-13,9.49a44.7,44.7,0,0,0-6.94,5.85c-2.32,2.56-5.27,4.76-7.15,7.67-1.53,2.37-2.49,5.1-4.18,7.37l3.62-2.84a11,11,0,0,0,1.56-1.41,17.26,17.26,0,0,0,1-1.41,31.28,31.28,0,0,1,2.81-3.38,7.29,7.29,0,0,1,1.54-1.4c.38-.23.8-.39,1.16-.64a16.71,16.71,0,0,0,1.21-1.17,1.62,1.62,0,0,1,1.54-.45,23.94,23.94,0,0,1-1.43,2.26,1.74,1.74,0,0,1-.64.65,3.62,3.62,0,0,1-.93.23c-1.36.3-2.1,1.74-2.65,3l1.64-.12a1,1,0,0,1-.13.87,39.75,39.75,0,0,1-4.75,7.71,11.19,11.19,0,0,0,2.3-5.69c-2,1.15-3.4,3.07-5,4.79A6.06,6.06,0,0,1,142,93.72a3.66,3.66,0,0,1,.58-1.82c-1.51-.07-2.52,1.49-3.2,2.84l-4.15,8.19-2.65,5.25-2.08,4.1a1.91,1.91,0,0,0-.26,1.65,36.09,36.09,0,0,0,5.3-6.52,7.29,7.29,0,0,1,.86-1.2c.36-.37.8-.66,1.19-1,1.51-1.34,2.17-3.52,3.86-4.63-.1,1.64-1.57,2.79-2.67,4a11.26,11.26,0,0,0-2.48,4.37,6.82,6.82,0,0,1-.56,1.55c-.29.48-.72.85-1,1.32a5.51,5.51,0,0,0-.41,3.44.39.39,0,0,0,.06.18c.1.14.32.06.46,0l3.15-2a7,7,0,0,0,.37,2.85A3.2,3.2,0,0,1,138,119c-1.73,2.07-3,3.25-3.24,6.14-.15,2-.3,4.2-1.83,5.43-.34.26-.75.5-.86.91a2.52,2.52,0,0,0,.16,1.2c.32,1.51-1,2.82-1.88,4.06a3,3,0,0,0-.58,1.18,4.68,4.68,0,0,0,0,1.18,5.29,5.29,0,0,1-.54,2.65l2,1.19a2.65,2.65,0,0,1,.88.71,9.31,9.31,0,0,1,.52,1.16c.31.58.92,1,1.08,1.61a2.87,2.87,0,0,1,0,1,8.75,8.75,0,0,0,1.09,5,5.78,5.78,0,0,1,.69,1.44c.26,1.17-.5,2.43-.07,3.55-.41.06-.19.77.11,1.06a1.79,1.79,0,0,0,1.18.37,1.54,1.54,0,0,1,1.14.46c.46.64-.18,1.46-.42,2.2a2.11,2.11,0,0,0,.55,2.12c.3.28.72.57.67,1s-.65.61-1.08.83c-1.23.63-1.21,2.43-.66,3.7s1.47,2.46,1.45,3.84a3,3,0,0,1,2.53,2c.12.35.21.79.57.91s.84-.3,1-.74c.56-1.52,0-3.37.9-4.75a14.79,14.79,0,0,1,1.52-1.65,2,2,0,0,0,.53-2.05c-.2-.41-.6-.68-.82-1.07s-.11-1,.34-1.09a3.57,3.57,0,0,1,1.32,1.89h1.72c0,.9,0,1.8,0,2.71a3.15,3.15,0,0,0-1.11,3.4,1.53,1.53,0,0,0,.74,1c.26.12.56.13.83.24,1.46.58.9,3.45,2.45,3.74.62.11,1.23-.33,1.86-.28s1.09.33,1.41-.05.09-.65,0-1a5.22,5.22,0,0,1,0-3.13,14.24,14.24,0,0,1-1.1-4.2l.44-.24a6.42,6.42,0,0,1,1.87,2.12c.25.57.33,1.2.63,1.74a1.33,1.33,0,0,0,1.53.73,1.41,1.41,0,0,0,.66-1.46,7.07,7.07,0,0,1-.09-1.71c.23-1.12,1.46-1.69,2.53-2.09.12.4-.37.66-.7.91a2.77,2.77,0,0,0-.65,2.57,7.36,7.36,0,0,0,1.43,4,3.3,3.3,0,0,0,3.84,1c1.58-.81,1.84-2.92,1.86-4.69.5-.25,1.23-.44,1.5,0s0,.76,0,1.15c.06.72.93,1.18,1,1.9a1.91,1.91,0,0,1-.42,1.14c-.58,1-1,2.4,0,3a3.12,3.12,0,0,0,.81.29,3.44,3.44,0,0,1,2.35,3.15,1.11,1.11,0,0,1-.07,2.18c-.22,0-.47,0-.63.17-.36.34.12,1.06-.25,1.38a1.44,1.44,0,0,1-.45.17c-.79.28-.68,1.41-.6,2.25a5.73,5.73,0,0,1-2.22,5,3.21,3.21,0,0,1-3.78.32,11,11,0,0,1-1.21-1.5,1.62,1.62,0,0,0-1.69-.66,2,2,0,0,0-.66.48c-1.21,1.18-2.49,2.46-2.82,4.12A6.55,6.55,0,0,1,157,198a9,9,0,0,1-1.41,1.56,3.19,3.19,0,0,0-.72,2.47c.48.57-.23,1.34-.54,2s-.81,1.27-1.07,2c-.55,1.46,0,3.08.48,4.56.69,2,1.44,4,3,5.36a11.83,11.83,0,0,0,1.3.93,12.59,12.59,0,0,1,4.56,4.43c1.08.28,2.34-.66,3.29-.06a2.35,2.35,0,0,1,.75,1c.52,1,1,2,1.55,3.07a5.33,5.33,0,0,0,1.62,2.17,1.81,1.81,0,0,0,2.45-.29c.61-.93-.14-2.23.23-3.28.5-1.42,2.75-1.76,2.93-3.25.08-.63-.24-1.4.23-1.84a2.37,2.37,0,0,1,.7-.33,1.85,1.85,0,0,0,1-2.14c1.85-.15,4.12-.08,5,1.53.2.35.58.83.88.56a19,19,0,0,1-.13-6.06,4.17,4.17,0,0,0,.15-1.68c-.35-1.63-2.71-2-3.49-3.45-.91-1.73.75-4.15-.44-5.7-.74-1-2.28-1.09-2.82-2.16a8.89,8.89,0,0,0-.46-1.15,3.8,3.8,0,0,0-1-.75c-1.33-.94-1.55-2.83-1.39-4.46s.57-3.31,0-4.85a7.67,7.67,0,0,1-.58-1.71,2,2,0,0,1,1.88-2.1,1.84,1.84,0,0,1,1.72,2.16,5.2,5.2,0,0,1-1.2,1.76,1.74,1.74,0,0,0-.35,2,1.44,1.44,0,0,1,.63,2.47c-.27.18-.59.27-.84.46a1.76,1.76,0,0,0-.09,2.27c.46.7,1.17,1.19,1.68,1.84a2.56,2.56,0,0,0,.92.93,2,2,0,0,0,.68.12l1.88.11a2.36,2.36,0,0,0,.7,0,2.54,2.54,0,0,0,.93-.67,12.25,12.25,0,0,1,3.47-2,3.09,3.09,0,0,1,1.35-.36c1.1.05,1.75,1.19,2.49,2a11,11,0,0,0,4.11,2.48c.7-2.59,1.4-5.42.38-7.91-.8-2-2.54-3.37-3.91-5s-2.4-3.68-1.77-5.65l1.05-.54a5.9,5.9,0,0,1,3.24,3.49,30.53,30.53,0,0,1,.69,3.7,9.48,9.48,0,0,0,2.69,4.8c0-1.44,0-2.88-.08-4.32a1.5,1.5,0,0,1,.31-1.16,1.43,1.43,0,0,1,1.15-.21,15.58,15.58,0,0,1,3.51.82,2.16,2.16,0,0,1,.93.53,2.33,2.33,0,0,1,.42,1.29c.2,1.76.23,3.9-1.26,4.84-1.09.7-2.73.51-3.48,1.56-.51.71-.42,1.78-1.08,2.35-.37.32-.93.42-1.2.83-.41.64.17,1.49,0,2.23-.11.48-.53.93-.36,1.39.1.28.38.44.6.64,1,.91.82,2.57.5,3.92-.26,1.1-.51,2.21-.77,3.32a9.42,9.42,0,0,0-1.74-6.38c-1.2.28-2.41-.26-3.59-.61s-2.65-.39-3.42.57a3.14,3.14,0,0,0-.18,2.93,8.15,8.15,0,0,1,.73,2.95c-.08,1.25-.93,2.59-.26,3.64l1.49.64c.8.34,1.75,1.23,1.16,1.88s-1.9.34-1.8,1.1a.9.9,0,0,0,.29.48c1.13,1.18,2.4,2.72,1.84,4.26a3.17,3.17,0,0,1,2.51.71,15.79,15.79,0,0,1,4.73,5c.36.62.69,1.26,1.06,1.87.84.08,1.08-1.13,1-2-.15-1.27-.29-2.54-.44-3.82a15.41,15.41,0,0,0-.51-2.87c-.39-1.32-1.11-2.52-1.58-3.82a5,5,0,0,1,0-4A6.71,6.71,0,0,1,199,218c.1.68.1,1.36.21,2,.34,2.11,1.73,4,2,6.07a5.36,5.36,0,0,0,.42,2.13,3.73,3.73,0,0,0,1,.95l4.12,3.17c.35.27.59.85,1,.67l-1.61-5.42,3.37,2.84a3.2,3.2,0,0,1,.51-2.54,2,2,0,0,1,2.37-.64,1.46,1.46,0,0,1,.46,2.23,5.46,5.46,0,0,1,6.35-.6,4.09,4.09,0,0,0,1.56.78c1.07.13,2.16-.89,3.12-.42s1.17,2.3,2.26,2.2c.65-.07,1.15-.88,1.77-.7l.24,1.58c1.72-.17,3.88-.72,4.16-2.43a4.64,4.64,0,0,1,.14-.92,2.43,2.43,0,0,1,.87-1,7.57,7.57,0,0,0,2.91-4.16,3.83,3.83,0,0,0-2-4.32c-.42-.37,0-1.05.43-1.4s1-.85.73-1.36c-.15-.31-.52-.43-.73-.7-.57-.71.27-1.91-.28-2.62-.25-.33-.7-.41-1.06-.62-1-.62-1-2.24-.29-3.19a6.51,6.51,0,0,1,3.07-1.84l3.33-1.22c.87-.32,1.89-.85,1.91-1.77,0-.66-.47-1.48.05-1.88.3-.23.73-.11,1.1-.2.88-.21,1-1.39.95-2.3,0-.66-.08-1.32-.13-2a2.25,2.25,0,0,1,.06-.86c.19-.52.74-.81,1.18-1.16s.81-1,.5-1.44l-4.5.19a3.47,3.47,0,0,1-2-.29,1.2,1.2,0,0,1-.47-1.69l-1.09-.37c0-.84.05-1.68.07-2.53a1.45,1.45,0,0,1,.13-.71,1.62,1.62,0,0,1,.57-.53l2.12-1.39a1.83,1.83,0,0,0,1,1.93c.66,0,.78-1,.46-1.53s-.82-1.2-.55-1.8c.1-.22.29-.38.4-.59.56-1.05-1.07-2.21-.74-3.36l-3.67-1a11.18,11.18,0,0,0-1-1.3,49.83,49.83,0,0,1-10.79,1.2l-.87,0a10.89,10.89,0,0,0,.18,2.85l1.75-1.46a15.27,15.27,0,0,0,.58,5.42,1.73,1.73,0,0,1,0,1.39c-.24.38-.76.49-1.06.83-.9,1,.84,2.67.22,3.87-1.35.05-2.48-1.87-3.68-1.25-.28.15-.49.43-.8.52-.67.2-1.24-.65-1.19-1.35s.46-1.35.54-2.05c.12-1-.45-2-.67-3a20.38,20.38,0,0,0-.45-2.92c-.35-.92-1.46-1.69-2.31-1.19a3.87,3.87,0,0,0-.87-2.38,49.27,49.27,0,0,1-21.23-9.24,1.7,1.7,0,0,0-.3.23c-.84.83-.76,2.19-.76,3.37s-.36,2.63-1.5,3c-1-.76-.81-2.48-1.83-3.22-.47-.35-1.11-.4-1.6-.73a3.26,3.26,0,0,1-1-2.54c-.12-1.53-.15-3.29,1-4.32a5,5,0,0,1,.65-.45c-8.85-8.94,35.23-3.85,35.23-17.43,0-9.39-2.19-14.05-4-16.13,2.15.74,6.08,1.49,12.72,1.49,16.64,0,22.55-44,31.53-31.44a3.93,3.93,0,0,1,3.56-1.1c4,.87,4.29,6.88,7.75,9l4.64-.1a4.2,4.2,0,0,0,4.08,2,5.12,5.12,0,0,0,4.6-4.08,4.29,4.29,0,0,0-3.46-4.82,10.81,10.81,0,0,1-2.06-.19c-.66-.21-1.25-.91-1-1.55,1.15-1.56,3.66-1,5.17.23s2.71,2.93,4.56,3.48c1-2.67,5.18-3.36,5.61-6.19a8.54,8.54,0,0,1,.23-2.15c.61-1.45,3-1.65,3.34-3.18a5.6,5.6,0,0,0-.2-2A3.53,3.53,0,0,1,303.83,89Z"></path><path d="M271.67,111.38a6.94,6.94,0,0,0-2-1,48.48,48.48,0,0,1,3.34,9.22,7,7,0,0,0,1.16-1C274,116,273.76,113,271.67,111.38Z"></path><path d="M185.87,117.51a.55.55,0,0,0,.28.06,1.66,1.66,0,0,0,.29-.1c.34-.11.68.15,1,.38s.68.43,1,.24.27-.62.14-.94a2.51,2.51,0,0,1-.34-1,3.65,3.65,0,0,1,.07-.46,1.42,1.42,0,0,0-2.28-1.31,2,2,0,0,1,.46.9.65.65,0,0,1-.52.75c-.25,0-.46-.16-.7-.22a.79.79,0,0,0-.9.45A3.82,3.82,0,0,0,185.87,117.51Z"></path><path d="M274,58.64a5.75,5.75,0,0,0,7.49,2,1.58,1.58,0,0,0,.39-.29c.5-.58,0-1.46-.48-2.05A7.92,7.92,0,0,0,274,58.64Z"></path><path d="M260.06,49l3.8.45c.63.08,1.49.57,1.15,1.11-.89-.17-1.63.93-1.41,1.82a3.07,3.07,0,0,0,1.86,1.87c5.43,2.49,12-1.71,17.67.14,3,1,5.32,3.56,8.31,4.64,1.23.44,2.84.94,2.9,2.25,0,.33-.08.66-.08,1a2.3,2.3,0,0,0,2.06,2,14.4,14.4,0,0,0,3.07-.12A8.7,8.7,0,0,1,305.33,66c.46.4-.32,1-.76,1.41-1,1,.13,2.75,1.47,3s2.66-.44,3.94-.92a10.71,10.71,0,0,1,7.44-.19,7.35,7.35,0,0,1,4.74,5.5,1,1,0,0,1-1.11,1.42,7.92,7.92,0,0,1-7.53-4.59,1.8,1.8,0,0,0-.62-.91,1.19,1.19,0,0,0-.55-.15c-1.88-.07-2.81,2.59-1.89,4.23s2.82,2.4,4.58,3.05a34.19,34.19,0,0,0,6.39,1.89,34.46,34.46,0,0,0,8.12,0,88.48,88.48,0,0,0,14.69-2L342,74.64a14.59,14.59,0,0,0-4.22-4.38c-3.42-2-8.13-1.07-11.18-3.58A14.42,14.42,0,0,0,324,64.47a6.42,6.42,0,0,0-2.43-.48,86.68,86.68,0,0,0-12.06.14,7.62,7.62,0,0,1-4-.37c-2.1-1-2.67-3.74-4.09-5.61a13.86,13.86,0,0,0-4.61-3.41l-2.9-1.56a9.13,9.13,0,0,0-1.92-.85c-1.38-.39-2.86-.12-4.26-.38a11.62,11.62,0,0,1-3.64-1.61l-6.71-3.94a5.7,5.7,0,0,0-2.3-.94c-1.76-.17-3.48,1.28-5.18.79a6.88,6.88,0,0,1-1.67-.94,7.9,7.9,0,0,0-9.54,1.16,1.72,1.72,0,0,0-.6,1.2C258.1,48.54,259.19,48.87,260.06,49Z"></path><path d="M384.7,221.34a10.15,10.15,0,0,0-1.69-3.1,14.77,14.77,0,0,0-2.55-2,15.89,15.89,0,0,1-6-8.37,4.55,4.55,0,0,0,1.94-3.24,26.2,26.2,0,0,0-.15-10.81c-1-4-3.37-7.05-8-5.79a5,5,0,0,1-1.61.27c-2.12-.14-3.82-3.26-5.67-2.2-1.62-.75-.13-3.47-1.12-4.95-.44-.67-1.4-1.1-1.36-1.9,0-.45.37-.82.54-1.24a2.1,2.1,0,0,0-1.77-2.58,4.55,4.55,0,0,0-3.31,1.13,19.14,19.14,0,0,1-2.89,2.12,9.55,9.55,0,0,1,2.37,8.46c-2.05.12-4.3.18-5.93-1.08a3.32,3.32,0,0,0-1.18-.76,2.24,2.24,0,0,0-1.19.15c-2.25.83-3.93,2.72-5.51,4.53l-.36.44a11.88,11.88,0,0,0-4.6-5.17c-1.54.2-2.24,2.13-2,3.67s1.07,2.94,1.22,4.49c-.66,1.76-3.81.28-5.08,1.67a2.32,2.32,0,0,0,.05,2.68c.49.83,1.24,1.48,1.7,2.32q-1.8,2.9-3.62,5.79c-.24-.81-.62-1.75-1.45-1.92-1.12-.23-1.87,1.15-2.1,2.27s-.59,2.54-1.72,2.75c.46,1.43,2.84.59,4,1.54.89.72.67,2.09.75,3.23s1.23,2.48,2.14,1.8a2,2,0,0,0,.57-1.39,22.24,22.24,0,0,1,4.6-10.52,5,5,0,0,0,1.48-2.85c0-.93-.58-1.89-.23-2.75.49-1.21,2.15-1.1,3.39-1.6a5.6,5.6,0,0,1-1,1.41c-.67.69-1.55,1.26-1.85,2.18s.19,2.35-.37,3.33a5.84,5.84,0,0,1-1.23,1.2c-1.24,1.16-1.55,3-1.8,4.64-.5,3.47-1,7.15.35,10.39.72,1.74,1.94,3.29,2.3,5.13-1,.75-2.37,0-3.25-.9s-2-1.89-3.14-1.57c-.92.26-1.73,1.3-2.6.93a5.84,5.84,0,0,0-3-6.49,1.47,1.47,0,0,1-.88-1.48c-1.34-.05-2,1.61-2.21,2.92s-1,3-2.35,2.74c-.45-.07-.85-.36-1.3-.34-1,0-1.3,1.47-2.19,1.95-.71.38-1.66.05-2.38.44-.55.29-.82.93-1.31,1.32-1.21.95-2.93,0-4.19-.84s-3-1.72-4.17-.7c-.92.83-.74,2.35-1.46,3.34-.89,1.24-3,1.53-3.23,3a2.4,2.4,0,0,0-3.39.24,8.7,8.7,0,0,0,1.58,4.83,9.17,9.17,0,0,1-3.35,2.28,21.27,21.27,0,0,0,2,4c-1.23.79-.87,2.92-2.05,3.78-.69.5-1.64.37-2.47.56s-1.67,1.16-1.13,1.83c-.15,1.18-2.18,1.86-2.93.95s-1-2.22-1.89-3c-1.31-1.15-3.39-.69-5-1.38a10.34,10.34,0,0,0-1.48-.67c-1.68-.42-3.2,1.36-3.37,3.08s.51,3.4.8,5.11,0,3.75-1.44,4.67c-.73.46-1.68.58-2.24,1.24-1.13,1.33.32,3.25.63,5a7.52,7.52,0,0,1-.52,3.49c-.6,1.91-1.75,4.22-3.75,4.08-1.57-.12-2.54-1.76-3.06-3.25s-1-3.19-2.38-4c-2.5-1.4-5.67,1.41-8.39.49l.66,1.82c-1.26.3-1.57,2-1.32,3.22s.79,2.59.32,3.78c-.57,1.44-2.29,2-3.79,2.3a10.75,10.75,0,0,1,.26,5.07c.57.59-.7,2.1-1.51,2.25a10.12,10.12,0,0,1-2.43-.27,3.66,3.66,0,0,0-3.75,2.8l5,1.43a3.74,3.74,0,0,0,1.81.19,4,4,0,0,0,1.61-1c3.89-3.29,9.93-4.78,14.06-1.81.84.6,1.69,1.4,2.72,1.31a3.51,3.51,0,0,0,1.74-.92c1.74-1.39,3.63-3.13,3.54-5.34a6.14,6.14,0,0,1-.06-1.76c.32-1.27,1.89-1.69,2.86-2.58,2.28-2.1.66-5.86-1.06-8.45l6.44-4a3.48,3.48,0,0,1,1.81-.7,5.2,5.2,0,0,1,1.91.67c3.7,1.62,7.81-1.11,10.66-4a8.49,8.49,0,0,0,10,2.41c1.34.92,1.29,3,.33,4.35a9.22,9.22,0,0,1-4,2.64,10,10,0,0,1,2.15,4.31c.21,1.61-.65,3.49-2.24,3.83l.93,1.68a6.75,6.75,0,0,1,3.86.23,3,3,0,0,1,1.86,3.11c-2.16,1.19-4.8.31-7.17-.32s-5.41-.73-6.76,1.32a11.24,11.24,0,0,1-4.41,5.13,3.83,3.83,0,0,0-.59-4.59c-1.73-1-3.73.75-4.88,2.38s-2.79,3.55-4.7,3c-.68-.2-1.27-.71-2-.68a2.67,2.67,0,0,0-1.77,1.21c-1.11,1.34-2.27,2.91-2.05,4.65s2.72,3,3.75,1.57c-.47-1.71-.72-4,.85-4.83s3.68,1.29,3.26,3.14-2.29,3-4.11,3.53-3.77.64-5.49,1.44c-.72.34-1.39,1.39-.7,1.77a3.05,3.05,0,0,0,2.27.31,3.66,3.66,0,0,1-5.57,4.26c-2.69-2-1.67-6.41-3.65-9.08a4.74,4.74,0,0,0-3.52-1.89c-2.85-.14-5.19,2.28-6.49,4.81a4.55,4.55,0,0,1-1.06,1.55c-1.11.88-2.7.36-4.07,0s-3.26-.16-3.62,1.21a27.68,27.68,0,0,0,11,7.94,1.82,1.82,0,0,1,1.05.73,2.85,2.85,0,0,1,0,1.48c-.09,1.37.94,2.53,1.89,3.51a7.06,7.06,0,0,0,3.27,2.26c1.32.28,2.95-.56,3-1.91,0-2.47-4.66-2.88-4.57-5.35a6.11,6.11,0,0,1,5.58.15,7.69,7.69,0,0,0,11.17,2.35c1.47-1.2,2.56-3,4.38-3.54,2.9-.84,5.44,1.95,8.19,3.21,3.5,1.61,7.59.68,11.32-.28l9.48-2.43-5.33-.67a27.5,27.5,0,0,0,8.16-3.89,3.33,3.33,0,0,0-2.86-2.93c4-.8,5.13-6.29,8.64-8.41,1.13-.67,2.47-1,3.46-1.84,1.42-1.22,1.79-3.28,1.74-5.16a16,16,0,0,0-5.48-11.5,16.2,16.2,0,0,0,8.16,1.22c0,1.69,1.21,4.08,2.61,3.14a2.34,2.34,0,0,0,.77-1.22q1.2-3.17,2.39-6.33a10.9,10.9,0,0,1,2.44-4.31c2-1.9,5.36-2.14,7-4.38-.24,1,1.06,1.79,2,1.48a4,4,0,0,0,2.06-2.15c1.18-2.24,1.62-5.74-.74-6.64-2.13-.81-5.46,1.07-6.31-1a2.83,2.83,0,0,1,0-1.75A20.59,20.59,0,0,1,351.22,237c1.88-.83,4.27-1.87,4.28-3.93a2.51,2.51,0,0,1,2,3,5.8,5.8,0,0,0,4.15-1.1c-1-.7-.7-2.34.14-3.23s2-1.36,2.95-2.17c2.57-2.3,2.92-7.23,6.32-7.77,2.59,1,2.25,4.79,1.16,7.34s-2.36,5.81-.45,7.83a6.67,6.67,0,0,1,4.25-3.72,7.42,7.42,0,0,0-.73,7.9,13.6,13.6,0,0,1,6.47-6.74l-.48-2.43c2.27.53,4.44-1.64,4.82-3.93S385.56,223.49,384.7,221.34Z"></path><path d="M179.67,270.34c-1.12-.8-2.43-1.53-2.78-2.88-.17-.64-.13-1.41-.6-1.85a3.59,3.59,0,0,0-2.34-.41,13.31,13.31,0,0,1-6.68-1.58,6.28,6.28,0,0,0-1.84-.89,5.55,5.55,0,0,0-2.18,0c-3.84.72-8.06,4.17-9.3,7.62a6.72,6.72,0,0,1-1.58,3.12,7.16,7.16,0,0,0-1.28,1.15,1.44,1.44,0,0,0-.1,1.22,6.19,6.19,0,0,0,3.9,4c.7.26,1.51.48,1.7,1.16a10.28,10.28,0,0,1-.11,1.8c.06,1.49,2,1.77,3.05,2.63,1.41,1.11,1.44,3.28,2.71,4.51,1,.95,2.6,1.26,4.16,1.55l4.18.76c3,.56,7,.84,10.08-1.76a7.78,7.78,0,0,0,2.84-5.4,10.47,10.47,0,0,0-1.11-4.7,3.39,3.39,0,0,0,2.27-2.19,3.22,3.22,0,0,0-.34-2.37A14.21,14.21,0,0,0,179.67,270.34Z"></path><path d="M320.39,306.17a5.76,5.76,0,0,0,5.66-1.53,1.73,1.73,0,0,0,.52-.94.7.7,0,0,0-.59-.78c-1.73,1.32-4.68.57-5.94,2.35a.62.62,0,0,0-.14.55A.67.67,0,0,0,320.39,306.17Z"></path><path d="M310.78,309.44a2.8,2.8,0,0,0-.92.32c-1.19.51-2.56.45-3.77.89a9.64,9.64,0,0,0-2.16,1.27l-3.84,2.73,8.4-1.77a10.3,10.3,0,0,0,2.12-.61c1.13-.51,2-1.42,3.11-2l-2.12-.66A2.13,2.13,0,0,0,310.78,309.44Z"></path><path d="M328.52,307.05a15.67,15.67,0,0,0-5,1.13,2.66,2.66,0,0,0-2.28-.7,6,6,0,0,0-2.3.89,15.91,15.91,0,0,0-3.18,2.48,14.05,14.05,0,0,0,5.37-1.57c.11.2.21.4.32.59l-2.13,1.78a.91.91,0,0,0,.9.66,2.68,2.68,0,0,0,1.16-.34q4.81-2.31,9.45-5l-1.16,0C329.29,307,328.9,307,328.52,307.05Z"></path><path d="M341.05,81.39a2.08,2.08,0,0,0-1.75-1.3,5.2,5.2,0,0,0-2.27.32,27.22,27.22,0,0,0-6.27,2.89,5.58,5.58,0,0,0-1.37,1.09c-1,1.19-.93,2.9-.84,4.44l4.71-.15a7.07,7.07,0,0,1,1.3,0,12.37,12.37,0,0,1,2.39.91,7.5,7.5,0,0,0,3.24.53,1.75,1.75,0,0,0,.07-2,5.88,5.88,0,0,1-.86-2C339.26,84.44,341.57,83.05,341.05,81.39Z"></path><path d="M335,105.89a30.32,30.32,0,0,1,3.27.48,5.1,5.1,0,0,0,3.23-.43,2.4,2.4,0,0,0,1.16-2.81,3.75,3.75,0,0,0-1.95-1.67l-2-1a2.28,2.28,0,0,1-1.13-.91c-.38-.78.18-1.66.74-2.32s1.2-1.44,1-2.27a2.31,2.31,0,0,0-.85-1.09,15.5,15.5,0,0,0-3.67-2.24,4.89,4.89,0,0,0-1.63-.45,5.51,5.51,0,0,0-2.16.51l-3.33,1.27A2.71,2.71,0,0,0,326,94.21c-.27.67.45,1.63,1.08,1.27.55,1.36-1,2.63-1.35,4.06a5.27,5.27,0,0,0,.48,3.1c.5,1.37,1.14,2.87,2.48,3.44a3.85,3.85,0,0,0,1.3.25C331.65,106.41,333.32,105.83,335,105.89Z"></path><path d="M357.89,85.45a2.69,2.69,0,0,0,1.18.62.92.92,0,0,0,1.05-.63,1.35,1.35,0,0,0-.3-.91c-.44-.69-.88-1.37-1.31-2.06a6,6,0,0,0-1.36-1.64,2,2,0,0,0-2-.32,3.27,3.27,0,0,0,.54,2.87A9.68,9.68,0,0,0,357.89,85.45Z"></path><path d="M366.77,97a10.35,10.35,0,0,1,1.93,1.3,5.92,5.92,0,0,1,.79,1.33,9.07,9.07,0,0,0,3.13,3.38,7.61,7.61,0,0,0-.18-2.77,2.3,2.3,0,0,0-.44-1,3.8,3.8,0,0,0-1.09-.71,5.43,5.43,0,0,1-2.09-2,12.53,12.53,0,0,0-.65-1.12c-.72-1-2-1.4-2.79-2.3-.37-.4-.63-.88-1-1.24a1.32,1.32,0,0,0-1.48-.3l1.74,2.81A8.51,8.51,0,0,0,366.77,97Z"></path><path d="M358.41,258.71a1.39,1.39,0,0,0-1.2-.27c-.4.13-.64.7-.35,1a6.57,6.57,0,0,1-2,.36c-.69.1-1.44.52-1.49,1.22a3.17,3.17,0,0,1,0,.69c-.14.45-.77.63-.84,1.09s.31.69.69.71a1.7,1.7,0,0,0,1-.37,5.39,5.39,0,0,1,2-1.09c.76-.13,1.7.4,1.62,1.17a2.49,2.49,0,0,0,2.05-1.82A3.44,3.44,0,0,0,358.41,258.71Z"></path><path d="M343.28,145.44a9.31,9.31,0,0,0,.49,3.69c.29,1.05.57,2.11.86,3.16s.66,2.11,1.62,2.44a13.51,13.51,0,0,0,1.68.2c1.19.26,2,1.53,3.23,1.64,1.4.11,2.41-1.43,2.55-2.83s-.27-2.82-.06-4.22a4,4,0,0,1,3.26-3.43,5.2,5.2,0,0,0,1.77-.25,2.86,2.86,0,0,0,1.16-2.11,7.21,7.21,0,0,0,.09-4c-.45-1.2-1.53-2.11-1.82-3.36a2.15,2.15,0,0,0-2.55,1.36,6.29,6.29,0,0,0-.15,3.17c-.08-.63-2.41,1.16-2.59,1.28-1.82,1.21-3,1.66-5,1.18C345.73,142.84,343.69,142.29,343.28,145.44Z"></path><path d="M329.19,188a3.41,3.41,0,0,0,1.07-2.07A8.58,8.58,0,0,0,330,181a6.53,6.53,0,0,0-7.14-3.86c-.77.16-1.64.45-2.31,0s-.79-1.15-1.31-1.6c-.9-.8-2.35-.31-3.3.44s-1.75,1.78-2.92,2.09a2.37,2.37,0,0,0-4.52,1.07c.05,1.41,1.28,2.45,1.89,3.71a5.61,5.61,0,0,1-.35,5,11.07,11.07,0,0,1-3.64,3.69,3.65,3.65,0,0,0-1.06.93,3.21,3.21,0,0,0-.05,2.51c.54,2.06,1.17,4.1,1.89,6.1,1.12-.68,2.46.53,3,1.71s1.16,2.64,2.45,2.87,2.85-1,3.91-.2c.34.27.54.71.94.88a1.44,1.44,0,0,0,1.09-.1,5.17,5.17,0,0,0,1.82-7.8,9.69,9.69,0,0,1,4-4.05,3.52,3.52,0,0,0,1.23-.87c.83-1.14-.21-2.94.61-4.09C326.91,188.61,328.31,188.7,329.19,188Z"></path></g><g style="opacity:0.1"><path d="M334.31,135.19c-1.17-7.69-7.29-16.94-17-18.54-6.78-2.1-14.69,1.41-18.19,7.59s-2.63,14.39,1.63,20.07a22.61,22.61,0,0,0,18.61,8.6c4.43-.13,9-1.61,11.93-5S335,139.64,334.31,135.19Z"></path></g></g><g id="freepik--Bats--inject-15"><path d="M46.5,77.92S66.33,64.84,79.31,89.66l-1.82-9.72,3.78,5-.56-6.9L86.13,89S79.72,65.72,98.52,57c0,0-8.61,9.14-.72,18.25,0,0-6.16,3.4-4.34,13.12A18.58,18.58,0,0,0,88.18,103S80.39,91,69.88,95.26c0,0,.48-12.19-10.56-11.78C59.32,83.48,56.34,77.12,46.5,77.92Z" style="fill:#263238"></path><path d="M369.16,124.11s27.6-5.94,34.45,7.06l2.56-5.51,1.53,5,4.87-.31s1-6.23,1-5.18,2.49,4.9,2.49,4.9,9.9-13.4,30.7-7.54c0,0-13.32-1.1-14.37,9.95,0,0-9.45-3.12-9.83,6.27,0,0-6.48,1.65-6.11,8.39,0,0-4.34-3.9-5.22-4.23-.47-.17-5.2,5.06-5.2,5.06s.12-8.72-7.74-8.09c0,0,1.16-9.77-11.13-6C387.2,133.8,390.21,125,369.16,124.11Z" style="fill:#263238"></path><path d="M83.31,329.08s25.79-4.7,31.76,7.58l2.54-5.05,1.27,4.67,4.54-.15s1.07-5.76,1.11-4.77S126.7,336,126.7,336s9.59-12.15,28.71-6.1c0,0-12.33-1.41-13.63,8.82,0,0-8.67-3.18-9.31,5.52,0,0-6.06,1.34-5.91,7.61,0,0-3.92-3.75-4.73-4.08-.43-.18-5,4.54-5,4.54s.36-8.09-7-7.74c0,0,1.37-9-10.15-5.94C99.76,338.61,102.82,330.54,83.31,329.08Z" style="fill:#263238"></path></g><g id="freepik--Werewolf--inject-15"><path d="M283.54,157.16s13.7,16.27,16.27,35.53-3.43,70.41-3.43,70.41l-61.22,1.95L223.6,234.22l-23.55-32.11L189.78,173s14.55-12,31.68-15.84S283.54,157.16,283.54,157.16Z" style="fill:#455a64"></path><path d="M267.72,216.86a2.61,2.61,0,0,1-.33-.37l-.9-1.1-3.33-4.19.28-.14a43.19,43.19,0,0,1,1.09,16.39l-.09.67-.36-.57-5.61-8.85.48-.19c.14.8.28,1.67.36,2.54A31.78,31.78,0,0,1,258,233.82l-.17.51-.28-.46c-1.71-2.86-3.29-5.51-4.72-7.89l.39-.14a12.83,12.83,0,0,1-.59,6.78l-.12.32-.17-.29-2.94-5.07-.76-1.36a2.74,2.74,0,0,1-.24-.48s.12.14.32.44l.83,1.31c.74,1.21,1.77,2.89,3.07,5l-.29,0a12.66,12.66,0,0,0,.48-6.6l-.22-1.14.6,1,4.78,7.85-.44,0a31.68,31.68,0,0,0,1.25-12.56c-.08-.87-.22-1.71-.36-2.51l-.23-1.29.7,1.11,5.58,8.87-.45.1a44.11,44.11,0,0,0-.9-16.25l-.19-.74.46.61,3.21,4.28.84,1.15C267.65,216.71,267.74,216.85,267.72,216.86Z" style="fill:#263238"></path><path d="M271.28,173.92a7,7,0,0,1,.62,1.1c.37.73.88,1.82,1.44,3.21a52.44,52.44,0,0,1,3.23,11.65l.09.61-.49-.37-5-3.81-1.7-1.3.34-.39a12.57,12.57,0,0,1,3.67,10.15l-.05.4-.3-.25-5.58-4.71L266,188.88a3.6,3.6,0,0,1-.52-.51,2.56,2.56,0,0,1,.6.41l1.6,1.24,5.7,4.57-.35.14a12.25,12.25,0,0,0-3.61-9.74l.34-.39,1.7,1.29,5,3.83-.4.24a57.61,57.61,0,0,0-3-11.62c-.52-1.4-1-2.49-1.31-3.25A7.33,7.33,0,0,1,271.28,173.92Z" style="fill:#263238"></path><path d="M292.26,175.71a4,4,0,0,1,.34.59c.21.39.52,1,.9,1.73.77,1.53,1.85,3.78,3.08,6.65a135.56,135.56,0,0,1,7.72,24.14l.21,1-.64-.75-4.54-5.34.45-.17c0,2.8,0,5.72-.06,8.69-.31,14.09-1.13,26.82-1.85,36-.37,4.6-.72,8.32-1,10.88-.14,1.26-.26,2.24-.34,3,0,.31-.08.56-.1.76a.85.85,0,0,1-.06.26v-.26c0-.21,0-.46.06-.77.05-.72.13-1.71.24-3,.21-2.58.5-6.3.82-10.9.63-9.2,1.39-21.93,1.7-36,.07-3,.08-5.88.07-8.68v-.7l.46.54,4.53,5.35-.43.21a143,143,0,0,0-7.52-24.13c-1.19-2.89-2.23-5.15-2.94-6.69l-.83-1.77A4.55,4.55,0,0,1,292.26,175.71Z" style="fill:#263238"></path><path d="M276.39,299.09s-.16,1.4-.46,3.84c-1.91,15.59-9.46,68.5-17.38,75.7-9.16,8.33-28.51,12.6-32.54,13-5.28.52-15.15,4.05-22.17,18.67-9.25,19.26-12.22,43.34-12.22,43.34l-21.09-2.27s10.14-44.94,14.27-52.8,13.88-9.17,15.25-18.88.43-14,8.56-19.06c6.79-4.21,14.9-2.77,14.9-2.77s2-18.93,3.42-33.53,5.49-16.45,5.49-16.45-5-18-3.66-26.83a79.64,79.64,0,0,1,5.64-18l59.39-.94-17.56,38.41" style="fill:#455a64"></path><path d="M175.85,431.74c-.18,6.07-6.06,24.81-8.08,26.65s-10.29,3.49-8.46,8.09c0,0-5.33,2.57-3.86,8.09,0,0,3.31-4.42,6.07-3.31s7-2,7-2l-.18,9.55s1.84-2.94,4.41-3.67,7.17.36,8.09-2l.92-2.39s1.35,6.37,5.93,6.87c.45.05,1.79,4.15,1.79,4.15l2.2-4.59s4.6-1.47,3.86-5.33a15.71,15.71,0,0,0-1.71-5.32s2.63,7.52,7.78,8.08,6.43-.74,6.43-.74l3.86,5.51s1.1-5.51-1.29-9.74a30.12,30.12,0,0,0-6.24-7.89c-2.53-2.41-6.7-4-8.17-4.77s-3.42-27.4-3.42-34.2" style="fill:#455a64"></path><path d="M195.56,473.16c-.08,0,0-.83-.32-2.11a14.11,14.11,0,0,0-2-4.65,11.15,11.15,0,0,0-3.66-3.44c-1.13-.66-1.92-.91-1.89-1a4.73,4.73,0,0,1,2.06.66,10.26,10.26,0,0,1,3.93,3.48A12.46,12.46,0,0,1,195.6,471,4.26,4.26,0,0,1,195.56,473.16Z" style="fill:#263238"></path><path d="M181.76,460.78a17.93,17.93,0,0,1-.22,10.91c-.15,0,.39-2.44.44-5.45S181.61,460.81,181.76,460.78Z" style="fill:#263238"></path><path d="M172,462.72A39.29,39.29,0,0,0,169.8,466c-1,1.94-1.26,3.74-1.42,3.72a8.53,8.53,0,0,1,3.63-7Z" style="fill:#263238"></path><path d="M188.6,395.43a31.92,31.92,0,0,0-13.16,12.46,14,14,0,0,1,5.66-3.15,19.51,19.51,0,0,0-5.23,9,11.93,11.93,0,0,1,4.13-3.19,20.8,20.8,0,0,0-3.18,14" style="fill:#455a64"></path><path d="M235.09,389.45a34.76,34.76,0,0,0,11.64-3.83,18.94,18.94,0,0,1-5.49,7.64,19.4,19.4,0,0,0,9.71-5.47,10.17,10.17,0,0,1-1.73,4.53,32.79,32.79,0,0,0,11.92-19.52" style="fill:#455a64"></path><path d="M244.91,388.51a16.78,16.78,0,0,1,.82-1.48,23.21,23.21,0,0,0,1.81-4.23l.28.22a16.87,16.87,0,0,1-9.49,3h-.47l.25-.39,2-3.25,1.57-2.52.37.34a15.69,15.69,0,0,1-7.87,3l-.39,0,.17-.35a23.63,23.63,0,0,1,3.67-5.23,17.38,17.38,0,0,1,1.27-1.25c.31-.27.48-.4.5-.38s-.6.63-1.58,1.79a25.29,25.29,0,0,0-3.47,5.27l-.21-.31a15.69,15.69,0,0,0,7.6-3l1.09-.81-.71,1.15-1.57,2.53-2,3.24-.22-.39a17.05,17.05,0,0,0,9.29-2.81l.46-.32-.17.53a20,20,0,0,1-2,4.21c-.29.47-.54.82-.71,1.05A2,2,0,0,1,244.91,388.51Z" style="fill:#263238"></path><path d="M292.26,260.61s56.84,40.42,78,59.77c2.21,2,16.84,14.43,16.84,20.32,0,4.41-2.69,10.63-10,15.72s-41.64,33.36-41.64,33.36l8.25,35.16s12.82,12.49,16.94,14.34-2.29,2.31-2.29,2.31l-10.93,10.64s-17.92-11.1-21.58-20.35c-2.25-5.68-9.5-20.76-14.76-31.57a15.22,15.22,0,0,1,4.38-18.78,39.58,39.58,0,0,0,5.34-4.71c4.58-5.09,16-25.91,16-25.91l-62.21-49.08Z" style="fill:#455a64"></path><path d="M388.54,444.43a7.11,7.11,0,0,0-4.13-5.7,7.45,7.45,0,0,1,4.83,1.25,17.78,17.78,0,0,0-10-7.51c-3.45-.88-7.08-.41-10.62,0a50.87,50.87,0,0,1-10.61-.15c-4.24-.36-5.55.66-13.61-6.75l-10,15c3,5.83,8.33,13.7,14.58,11.67,2.05-.66,8.18-2.74,10.13-1.81,1.4.66,2.17,2.22,3.46,3.08,2.16,1.43,5,.58,7.58.25a17.24,17.24,0,0,1,11.89,2.91,6.38,6.38,0,0,0-3.71-7.76,10.19,10.19,0,0,1,7.45,2.21,7.77,7.77,0,0,0-3.94-8.32A9.42,9.42,0,0,1,388.54,444.43Z" style="fill:#455a64"></path><path d="M312.71,385.54a26.74,26.74,0,0,0-10.28,14.79c.81.25,1.48-.61,2-1.25s1.78-1,2.09-.25a1.44,1.44,0,0,1,0,.77l-1.8,9.16a13.45,13.45,0,0,0,5.28-5.4,33.93,33.93,0,0,0-.17,10.83l7.52-9.39" style="fill:#455a64"></path><path d="M382.63,333.51a18.55,18.55,0,0,1,2.87,21.26,10.54,10.54,0,0,0-.29-7.77A36,36,0,0,1,379,362.31a41.73,41.73,0,0,0,1.85-14" style="fill:#455a64"></path><path d="M371,349.92a4.13,4.13,0,0,1-.32.89,21.4,21.4,0,0,1-1.19,2.41,24.83,24.83,0,0,1-6.33,7.3l-.55.42.21-.66a33.84,33.84,0,0,0,1.4-7l.47.13a21.54,21.54,0,0,1-5.77,7.49,21.17,21.17,0,0,1-3.85,2.57l-1,.5.63-.88a14.73,14.73,0,0,0,2.73-8l.42.15a27,27,0,0,1-5.85,5.65l-.5.36.23-.57,2.35-5.85c.26-.64.48-1.16.66-1.57a2.38,2.38,0,0,1,.26-.54,2.21,2.21,0,0,1-.17.58c-.15.42-.33.95-.57,1.61l-2.19,5.9-.28-.21a27.41,27.41,0,0,0,5.68-5.64l.44-.59,0,.74a15,15,0,0,1-2.77,8.24l-.33-.38a21.38,21.38,0,0,0,9.41-9.81l.61-1.28-.14,1.41a33.59,33.59,0,0,1-1.48,7.13l-.34-.23a26.17,26.17,0,0,0,6.39-7.08c.6-1,1-1.79,1.29-2.34A4.91,4.91,0,0,1,371,349.92Z" style="fill:#263238"></path><path d="M335.46,423.36a3.42,3.42,0,0,1-.58-.82c-.34-.55-.8-1.37-1.33-2.41a43.39,43.39,0,0,1-3.21-8.69l.5,0c-.17.5-.33,1-.47,1.59a26.24,26.24,0,0,0-.75,4.65l-.06.82-.4-.72a20.85,20.85,0,0,1-2.41-6.72,17.86,17.86,0,0,1-.22-2.05,2.24,2.24,0,0,1,0-.74c.07,0,.14,1,.5,2.73a22.65,22.65,0,0,0,2.54,6.54l-.46.11a23.91,23.91,0,0,1,.74-4.75c.14-.56.31-1.11.48-1.62l.28-.85.21.87a50.27,50.27,0,0,0,3,8.66C334.83,422.09,335.52,423.32,335.46,423.36Z" style="fill:#263238"></path><path d="M258.55,281.13a37.24,37.24,0,0,1-3.88-.12c-2.39-.11-5.7-.21-9.35-.13s-6.94.31-9.33.52-3.86.37-3.87.3a3.9,3.9,0,0,1,1-.24c.66-.13,1.62-.27,2.81-.42a90.49,90.49,0,0,1,9.36-.68,88.62,88.62,0,0,1,9.38.28c1.2.1,2.17.2,2.83.3A4.52,4.52,0,0,1,258.55,281.13Z" style="fill:#263238"></path><path d="M287.37,274.7a9.91,9.91,0,0,1-1.56.32c-1,.19-2.47.41-4.29.65-3.63.48-8.68,1-14.27,1.16s-10.65.06-14.31-.16c-1.83-.11-3.31-.23-4.33-.34a8.92,8.92,0,0,1-1.57-.22,8.41,8.41,0,0,1,1.59,0l4.33.17c3.65.13,8.7.21,14.28,0s10.6-.62,14.24-1l4.3-.48A8.9,8.9,0,0,1,287.37,274.7Z" style="fill:#263238"></path><path d="M234.4,263l63.76.08,2.29,3.38L362.91,314l-32,32.22-50.4-39.77s-4.35-4.45-5.22,1.78-9.56,52.88-9.56,52.88l-42.19-10s4.66-35.84,6-39.07,1.52-8.88.65-13.77-3.36-9.09-1.42-17.24A182.16,182.16,0,0,1,234.4,263Z" style="fill:#FF725E"></path><path d="M249.5,277a7.31,7.31,0,0,1,1.3.31c.41.12.92.27,1.48.49s1.24.43,1.93.76a33.87,33.87,0,0,1,4.75,2.55,38.52,38.52,0,0,1,5.2,4.09,38,38,0,0,1,4.33,5,34,34,0,0,1,2.78,4.62c.37.68.61,1.33.86,1.88a14.4,14.4,0,0,1,.55,1.46,6.83,6.83,0,0,1,.38,1.28c-.1,0-.69-1.76-2.12-4.45a36,36,0,0,0-2.84-4.51,40.12,40.12,0,0,0-4.3-4.9,42.5,42.5,0,0,0-5.1-4.06,37.09,37.09,0,0,0-4.64-2.61C251.3,277.65,249.47,277.14,249.5,277Z" style="fill:#263238"></path><path d="M297.62,278.05a5.11,5.11,0,0,1-.45,1.08c-.32.68-.82,1.64-1.46,2.82a95.48,95.48,0,0,1-5.54,8.91,97.79,97.79,0,0,1-6.48,8.25c-.89,1-1.62,1.8-2.15,2.33a5.13,5.13,0,0,1-.86.8,4.58,4.58,0,0,1,.71-.93l2-2.44c1.7-2.07,4-5,6.33-8.31s4.29-6.49,5.65-8.79c.63-1.08,1.17-2,1.6-2.74A6.16,6.16,0,0,1,297.62,278.05Z" style="fill:#263238"></path><path d="M223.78,351.18l-.27,4.3c2.3-1.41,5.48-.17,7.1,2s2.09,4.94,2.5,7.6a31.42,31.42,0,0,1,7.32-4.16,10.55,10.55,0,0,1,8.2.18c3.1,1.58,4.77,5,6,8.23a8.42,8.42,0,0,1,10.1-3.82q.74-3.33,1.46-6.65" style="fill:#FF725E"></path><path d="M330.37,345.57l6.35,5.59a9.3,9.3,0,0,1,13.72-7.93c0-3.83.66-7.87,3.1-10.83s7.11-4.31,10.22-2.08c-1.32-4.62,1-8.85,5.26-11.07l-7.6-6.53" style="fill:#FF725E"></path><path d="M251.67,316.44A22.48,22.48,0,0,0,247.28,328c-.8,6.7.43,13.54-.57,20.21a104.65,104.65,0,0,0,7-43.56,43.62,43.62,0,0,1-3.28,14.18" style="fill:#455a64"></path><path d="M261,315.89a19.28,19.28,0,0,0-1.74,5.4l.11.2c-2,5.79-4.06,11.7-4.21,17.83-.1,4.52.83,9,.56,13.53a16.35,16.35,0,0,0,2.74-5,16.79,16.79,0,0,0,.4-4.37q0-4,0-8a20.52,20.52,0,0,1,.29-4.22c.27-1.34.81-2.61,1.16-3.93C261.3,323.64,260.8,319.72,261,315.89Z" style="fill:#455a64"></path><path d="M244.79,309.73a19.34,19.34,0,0,0-1.74,5.41l.11.19c-2,5.79-4.06,11.7-4.21,17.83-.11,4.52.83,9,.56,13.54a12.4,12.4,0,0,0,3.14-9.35c0-2.67,0-5.34,0-8a21.25,21.25,0,0,1,.3-4.22c.27-1.34.8-2.61,1.15-3.93C245.09,317.48,244.59,313.57,244.79,309.73Z" style="fill:#455a64"></path><path d="M283.54,157.16s9.21.64,14.21,7.64,10,33.53,11,43a68,68,0,0,1,0,15.93A58.1,58.1,0,0,1,325,225.6c8.26,2.25,20.27,3.5,20.27,3.5l10-1,3.34,11.78s-33.37,10.49-43.63,9.74-18.76-12.26-18.76-12.26-9.76-48.29-9.76-49S283.54,157.16,283.54,157.16Z" style="fill:#455a64"></path><path d="M379.89,191c0,.52,5.08,10.69,4.56,13.29s-2.21,14.6-3.52,17-22.29,18.64-22.29,18.64l-4.43-11.73s1.17-4,4.3-6,3.91-3.13,3.91-3.13l.52-4.87-2.86-5-5-2.35-3.78,1.42s-2.21-2.07,0-3.77a67.63,67.63,0,0,1,5.87-3.78l7.69,4.44,4.17,6.64-1.65-12s-3.82.78-5.65-.91a9,9,0,0,1-2.34-3.13l2.86-1.69s9.65,1.56,10,1.43,4.82,11.34,4.82,11.34l-.13-8s-2.08-3-1.95-5.61S379.89,191,379.89,191Z" style="fill:#455a64"></path><path d="M353.64,203.07a2.91,2.91,0,0,0-2.94-.24,7.52,7.52,0,0,0-2.41,1.91,8.81,8.81,0,0,0-2.64,4.68c0,.39.05.91.44,1s.56-.29.75-.57a4.84,4.84,0,0,1,5.86-1.64" style="fill:#455a64"></path><path d="M365.62,194.21a6,6,0,0,0-10.08,2.72,8.65,8.65,0,0,1,5.32-.26" style="fill:#455a64"></path><path d="M379.55,191a6.12,6.12,0,0,0-7.94-2.26,7.39,7.39,0,0,1,5.07,3.57" style="fill:#455a64"></path><path d="M326.66,234.44a8.53,8.53,0,0,1-2.33.43,24.77,24.77,0,0,1-6-.12l.17-.46a20.48,20.48,0,0,0,2.61,1.3,19.65,19.65,0,0,0,3.5,1l1.08.21-1.07.27a15.56,15.56,0,0,1-5.48.37A6.81,6.81,0,0,1,317,237c0-.07.79.09,2.12.16a17.34,17.34,0,0,0,5.33-.54v.47a17.81,17.81,0,0,1-3.6-1,18,18,0,0,1-2.67-1.35l-1.06-.65,1.23.18a29.91,29.91,0,0,0,5.9.3A23.59,23.59,0,0,1,326.66,234.44Z" style="fill:#263238"></path><path d="M370.77,218.35c0-.08.43-.24.82-.83a2.68,2.68,0,0,0,.13-2.6,6.55,6.55,0,0,0-1.79-2.19c-.57-.48-.93-.8-.88-.86s.46.15,1.11.57a5.47,5.47,0,0,1,2,2.27,3.19,3.19,0,0,1,.27,1.72,2.64,2.64,0,0,1-.57,1.31C371.34,218.38,370.76,218.4,370.77,218.35Z" style="fill:#263238"></path><path d="M378.76,216.12c-.07-.05.29-.53.61-1.41a6.39,6.39,0,0,0,.28-3.55,6.32,6.32,0,0,0-1.71-3.12c-.65-.67-1.17-1-1.13-1a2.76,2.76,0,0,1,1.38.77,5.91,5.91,0,0,1,1.52,7.08C379.28,215.75,378.8,216.16,378.76,216.12Z" style="fill:#263238"></path><path d="M195.88,173.92s-19.68.8-18.28,24.74-2.59,20.67-3.46,31a72.54,72.54,0,0,0,.75,18.39,147.37,147.37,0,0,0-19.56-2.58c-9.45-.48-12.48-5.55-12.48-5.55l-9,9.8s26.88,28.9,47.34,26.36,24.93-51.14,24.58-59.7,1.58-13.78,1.58-13.78Z" style="fill:#455a64"></path><path d="M143.23,241.6a15.23,15.23,0,0,0,1.27-7.7c-.48-4.19-6.3-8.36-6.75-11.62a8.78,8.78,0,0,1,.92-5.44l3.59-3.56a2.66,2.66,0,0,0-2.91-2.84c-3.12,0-6.13,2.59-6.13,2.59l-2.07,6.31s-4.64-7-4.7-8.38,3-6.19,3-6.19,2.41-1.81,2-3.5a5.2,5.2,0,0,0-1.81-2.58c0-.15-11.14,9.33-11,12.28s1.17,9.85,1.17,9.85-5.16-4.4-5.77-7.95,4.51-9.56,3.63-11.86a4.15,4.15,0,0,0-3-2.63s-5.33,8.64-6.07,9.76-3,5.88-1.14,8.6,4.13,6.64,4.13,6.64.11,8.63,2.66,10.08a60.57,60.57,0,0,1,6,4.16l14.52,13.17Z" style="fill:#455a64"></path><path d="M180.55,183.65a23.27,23.27,0,0,0-3.52,9c-.37,2.77-.88,5.81-3,7.6a2.05,2.05,0,0,0,2.65-.46,8.54,8.54,0,0,1-1.45,4.48,5.28,5.28,0,0,0,3.41-3.75" style="fill:#455a64"></path><path d="M177.24,276.16a41.37,41.37,0,0,0,5.09.9,6.33,6.33,0,0,1,4.35,2.52c.91,1.46.51,3.78-1.1,4.38a9.65,9.65,0,0,0,4-5.79c.08,1.63.15,3.25.23,4.88a29.77,29.77,0,0,0,3.76-18.94" style="fill:#455a64"></path><path d="M197.89,204A29.53,29.53,0,0,1,208,212.35c-.11.11-2.13-2-4.92-4.32S197.81,204.17,197.89,204Z" style="fill:#263238"></path><path d="M198,220.74a3.25,3.25,0,0,1,.08.73c0,.47,0,1.17,0,2.07a24,24,0,0,1-1.55,7.25l-.28.73-.14-.77c-.34-1.75-.71-3.69-1.1-5.75l.49,0a33.33,33.33,0,0,1-2.14,5.17c-.25.49-.5,1-.77,1.42l-.48.83v-1c0-2.71,0-5.28,0-7.62l.44.11L190,228.46l-.5.92.14-1,.71-5.26c.09-.57.16-1,.22-1.43a1.79,1.79,0,0,1,.12-.5,2,2,0,0,1,0,.51c0,.4-.07.87-.12,1.45-.13,1.33-.32,3.12-.54,5.28l-.36-.12,2.38-4.52.43-.82v.93c0,2.34.05,4.91.09,7.63l-.49-.13c.26-.45.52-.92.76-1.4a34.33,34.33,0,0,0,2.12-5.08l.31-1,.17,1c.37,2.06.72,4,1,5.76l-.42,0a26.16,26.16,0,0,0,1.71-7.11C197.93,221.75,197.89,220.74,198,220.74Z" style="fill:#263238"></path><path d="M115,228.76a60.61,60.61,0,0,1-3.58-5.31,34.47,34.47,0,0,1-3.21-5.54,46.1,46.1,0,0,1,3.65,5.26A30,30,0,0,1,115,228.76Z" style="fill:#263238"></path><path d="M123.93,229.69a4.85,4.85,0,0,1-1.6-.65,6.5,6.5,0,0,1-3-2.95,3.76,3.76,0,0,1-.25-2.38,13.83,13.83,0,0,1,.62-1.78,7.57,7.57,0,0,0,.34-1.63c.06,0,.33.67,0,1.74-.14.52-.37,1.11-.5,1.77a3.46,3.46,0,0,0,.26,2.07,6.85,6.85,0,0,0,2.71,2.84A7.41,7.41,0,0,1,123.93,229.69Z" style="fill:#263238"></path><path d="M133.53,228.13a2.2,2.2,0,0,1-1.66-.41,4,4,0,0,1-2-3.58,17.3,17.3,0,0,1,1.18-3.92,12.9,12.9,0,0,1,.52-1.59,3.62,3.62,0,0,1-.16,1.69,27,27,0,0,0-1,3.85,3.85,3.85,0,0,0,1.65,3.24A9.83,9.83,0,0,0,133.53,228.13Z" style="fill:#263238"></path><path d="M140.87,210.8a4.18,4.18,0,0,1,5.92,4.49,6.82,6.82,0,0,0-6.77-1.47" style="fill:#455a64"></path><path d="M126.77,201.33l-.06.44a5.25,5.25,0,0,1,5.64-5.67,6.65,6.65,0,0,0-1.71,5.12" style="fill:#455a64"></path><path d="M268.23,66.36a41,41,0,0,1-6.85,5.31c-3.27,1.84-9,12.08-11.09,13.12s-6.68-2.58-11.52-.15-4.83,4.15-8,5.33-9,6.23-12.71,7.56-7.47-.31-12.68,3.63a24.56,24.56,0,0,1-11.83,4.36s3,5,7.28,6.65,14.25-1.08,14.25-1.08l42.43,20.29s11.31-19,12-23.74,6.15-8.09,6.15-8.09,4.07-5.47,5-8-1.2-7.95-1.2-7.95S270.83,93,268.3,93.73s-3.55.62-4.13-.55.89-3.27,1.37-4.11,9.74-11.19,9.45-12.88S268.23,66.36,268.23,66.36Z" style="fill:#455a64"></path><path d="M216.93,108.89q-6.17,7.47-12.32,14.93l4,1.16a38,38,0,0,0-9.9,17.9l5.17-2.34c-1.77,9.4-9.26,17-10.86,26.42a22.27,22.27,0,0,0,1.55,12.64l8.85-2L282.19,159s.48-3.74-.37-6.09-1.62-4.22-1.62-4.22l4.4.66s-1.81-.24-3.26-2.9-5.55-10.07-5.55-10.07,2.42.91,4,.37c0,0-2.53-.49-3.73-4.11s-1.75-4.7-1.93-8.14-.61-6.09-1.39-7.17a7.65,7.65,0,0,1-1.09-5.49c.36-2.41,4.55-13,4.55-13l-21.73,3.25Z" style="fill:#455a64"></path><path d="M237.86,96a7.92,7.92,0,0,1,2.69-3.86,5.25,5.25,0,0,1,3-.68,16.42,16.42,0,0,1,3.11.59c-1.95,3.1-4.94,4.08-8.84,4" style="fill:#FF725E"></path><path d="M263.15,70.44A3.54,3.54,0,0,0,265,72.63a5.83,5.83,0,0,0,2.85.59,17.68,17.68,0,0,0,2.7-.36c.68-.12,1.51-.4,1.58-1.09a1.63,1.63,0,0,0-.47-1.11l-3-3.88c-.15-.19-.32-.4-.56-.42a5.17,5.17,0,0,0-2.09,1.3c-1.31,1.32-1.53,1.48-2.86,2.78" style="fill:#263238"></path><g style="opacity:0.30000000000000004"><path d="M216.81,105.12a10.73,10.73,0,0,1-2.94-.1,2.92,2.92,0,0,0,1.59-2,10.54,10.54,0,0,0-8.1,1.37c-1.68,1.07-3.11,2.66-5.05,3.08a11.12,11.12,0,0,0,14.51-2Z"></path></g><path d="M235.6,96.7a7.76,7.76,0,0,1,1.32-2.1,12.29,12.29,0,0,1,1.86-2,6.51,6.51,0,0,1,3-1.49c.6-.1,1.17-.1,1.7-.16l1.56-.21a3.14,3.14,0,0,0,2.21-1A2.85,2.85,0,0,0,248,88.2c0-.41,0-.64,0-.65s.17.2.2.65a2.74,2.74,0,0,1-.59,1.77,2.94,2.94,0,0,1-1,.86,5.06,5.06,0,0,1-1.43.43l-1.57.24c-.56.06-1.12.07-1.67.17A6.24,6.24,0,0,0,239.08,93a14.34,14.34,0,0,0-1.88,1.83A22.27,22.27,0,0,1,235.6,96.7Z" style="fill:#263238"></path><path d="M239,129.36a3,3,0,0,1-.76-.75,8.75,8.75,0,0,1-1.45-2.59,9.19,9.19,0,0,1-.38-4.44,1,1,0,0,0-.32-.94c-.26-.19-.51,0-.76.38l-1.59,2.38-.42.64,0-.77a20.81,20.81,0,0,1,0-2.61,18.38,18.38,0,0,1,1-4.46l.32.32a9.8,9.8,0,0,0-4,2.67l-.37.42v-.55a9.2,9.2,0,0,1,1.43-4.91,7.93,7.93,0,0,1,.87-1.13,1.92,1.92,0,0,1,.37-.33c.05,0-.44.54-1,1.58a9.46,9.46,0,0,0-1.22,4.78l-.37-.14a9.89,9.89,0,0,1,4.19-2.86l.49-.18-.17.5a18.37,18.37,0,0,0-.92,4.33,19.74,19.74,0,0,0,0,2.54l-.47-.13c.55-.81,1.09-1.6,1.6-2.37a1.72,1.72,0,0,1,.57-.57.85.85,0,0,1,.87.08,1.21,1.21,0,0,1,.46.66,1.93,1.93,0,0,1,0,.71,9.15,9.15,0,0,0,.26,4.29A11.79,11.79,0,0,0,239,129.36Z" style="fill:#263238"></path><path d="M252.27,154.31a1.87,1.87,0,0,1-.59.09,10,10,0,0,1-1.71,0,11.57,11.57,0,0,1-5.72-2.17l.34-.24a27.16,27.16,0,0,1,1.46,7.83l0,.65-.47-.45c-.49-.49-1-1-1.48-1.58a25.46,25.46,0,0,1-3.48-5.26l.47-.12c0,1.68,0,3.24,0,4.66v.61l-.38-.48a18.4,18.4,0,0,1-2.76-4.78,14,14,0,0,1-.48-1.45,1.61,1.61,0,0,1-.1-.53s.27.69.8,1.89a20.47,20.47,0,0,0,2.86,4.61l-.37.14c0-1.42-.08-3-.12-4.66l0-1.09.49,1a25.78,25.78,0,0,0,3.44,5.14c.47.55,1,1.07,1.44,1.55l-.43.19a28.65,28.65,0,0,0-1.36-7.72l-.22-.65.55.41a11.88,11.88,0,0,0,5.49,2.27C251.43,154.33,252.27,154.24,252.27,154.31Z" style="fill:#263238"></path></g></svg>